<?xml version="1.0" encoding="UTF-8"?>
<!DOCTYPE svg PUBLIC "-//W3C//DTD SVG 1.1//EN" "http://www.w3.org/Graphics/SVG/1.1/DTD/svg11.dtd">
<svg xmlns="http://www.w3.org/2000/svg" version="1.1" width="306px" height="86px" style="shape-rendering:geometricPrecision; text-rendering:geometricPrecision; image-rendering:optimizeQuality; fill-rule:evenodd; clip-rule:evenodd" xmlns:xlink="http://www.w3.org/1999/xlink">
<g><path style="opacity:1" fill="#000510" d="M -0.5,-0.5 C 101.5,-0.5 203.5,-0.5 305.5,-0.5C 305.5,28.1667 305.5,56.8333 305.5,85.5C 203.5,85.5 101.5,85.5 -0.5,85.5C -0.5,56.8333 -0.5,28.1667 -0.5,-0.5 Z"/></g>
<g><path style="opacity:1" fill="#744cc6" d="M 44.5,21.5 C 41.8333,22.1667 40.1667,23.8333 39.5,26.5C 38.7515,27.531 38.0848,28.6976 37.5,30C 36.5165,30.5908 35.8499,30.2575 35.5,29C 37.2973,22.1868 41.6306,18.8534 48.5,19C 46.6803,19.2004 45.347,20.0337 44.5,21.5 Z"/></g>
<g><path style="opacity:1" fill="#57d5db" d="M 165.5,28.5 C 167.5,28.5 169.5,28.5 171.5,28.5C 171.5,38.5 171.5,48.5 171.5,58.5C 169.234,58.8588 167.401,58.1922 166,56.5C 163.159,58.5037 159.993,59.0037 156.5,58C 154.951,56.786 153.785,55.286 153,53.5C 152.333,49.8333 152.333,46.1667 153,42.5C 155.808,37.7128 159.808,36.3795 165,38.5C 165.498,35.1832 165.665,31.8499 165.5,28.5 Z"/></g>
<g><path style="opacity:1" fill="#55d2d7" d="M 220.5,28.5 C 222.5,28.5 224.5,28.5 226.5,28.5C 226.334,34.1764 226.501,39.8431 227,45.5C 228.833,43.1667 230.667,40.8333 232.5,38.5C 234.765,37.3526 237.098,37.1859 239.5,38C 236.6,40.3968 234.267,43.2302 232.5,46.5C 234.584,50.3359 236.917,54.0026 239.5,57.5C 237.5,58.8333 235.5,58.8333 233.5,57.5C 229.634,48.044 227.301,48.3774 226.5,58.5C 224.5,58.5 222.5,58.5 220.5,58.5C 220.5,48.5 220.5,38.5 220.5,28.5 Z"/></g>
<g><path style="opacity:1" fill="#4257ac" d="M 33.5,29.5 C 33.6716,30.4916 33.3382,31.1583 32.5,31.5C 30.076,31.8076 27.7427,31.4742 25.5,30.5C 28.0865,29.52 30.7531,29.1866 33.5,29.5 Z"/></g>
<g><path style="opacity:1" fill="#378a91" d="M 102.5,31.5 C 98.1667,31.5 93.8333,31.5 89.5,31.5C 89.5,40.5 89.5,49.5 89.5,58.5C 88.5064,49.3483 88.1731,40.015 88.5,30.5C 93.3633,30.1805 98.03,30.5139 102.5,31.5 Z"/></g>
<g><path style="opacity:1" fill="#59dbe0" d="M 102.5,31.5 C 105.148,31.7385 106.982,33.0718 108,35.5C 109.511,45.707 105.011,50.0403 94.5,48.5C 94.5,51.8333 94.5,55.1667 94.5,58.5C 92.8333,58.5 91.1667,58.5 89.5,58.5C 89.5,49.5 89.5,40.5 89.5,31.5C 93.8333,31.5 98.1667,31.5 102.5,31.5 Z"/></g>
<g><path style="opacity:1" fill="#5a52d2" d="M 21.5,32.5 C 23.8333,32.5 26.1667,32.5 28.5,32.5C 28.8333,33.1667 29.1667,33.8333 29.5,34.5C 26.3019,35.0356 23.6353,34.369 21.5,32.5 Z"/></g>
<g><path style="opacity:1" fill="#1780c5" d="M 21.5,32.5 C 23.6353,34.369 26.3019,35.0356 29.5,34.5C 30.0431,34.56 30.3764,34.8933 30.5,35.5C 28.604,36.4656 26.604,36.7989 24.5,36.5C 21.1027,35.8018 17.6027,35.1352 14,34.5C 13.8333,34.1667 13.6667,33.8333 13.5,33.5C 16.0865,32.52 18.7531,32.1866 21.5,32.5 Z"/></g>
<g><path style="opacity:1" fill="#060f17" d="M 94.5,35.5 C 96.8568,35.3367 99.1902,35.5034 101.5,36C 104.265,38.9663 103.932,41.633 100.5,44C 98.5273,44.4955 96.5273,44.6621 94.5,44.5C 94.5,41.5 94.5,38.5 94.5,35.5 Z"/></g>
<g><path style="opacity:1" fill="#56d4d9" d="M 115.5,37.5 C 119.869,36.9232 123.869,37.7565 127.5,40C 125.84,42.7485 123.674,43.2485 121,41.5C 119.338,41.3875 118.171,42.0542 117.5,43.5C 120.751,45.375 123.918,47.375 127,49.5C 128.123,52.9563 127.29,55.7897 124.5,58C 119.816,59.1022 115.483,58.4355 111.5,56C 112.211,54.7453 113.044,53.5786 114,52.5C 116.99,55.0215 119.824,55.0215 122.5,52.5C 118.924,50.7879 115.757,48.4546 113,45.5C 112.018,42.2253 112.851,39.5586 115.5,37.5 Z"/></g>
<g><path style="opacity:1" fill="#57d5da" d="M 205.5,37.5 C 208.518,37.3354 211.518,37.502 214.5,38C 216.931,39.7291 216.597,41.2291 213.5,42.5C 206.702,41.4817 204.202,44.4817 206,51.5C 206.833,52.3333 207.667,53.1667 208.5,54C 210.936,53.9466 213.269,54.1133 215.5,54.5C 217.022,56.1563 216.689,57.323 214.5,58C 203.552,60.0518 198.719,55.5518 200,44.5C 201.371,41.7339 203.204,39.4006 205.5,37.5 Z"/></g>
<g><path style="opacity:1" fill="#c1419a" d="M 23.5,37.5 C 25.6979,38.1653 28.0312,38.8319 30.5,39.5C 30.3333,39.8333 30.1667,40.1667 30,40.5C 27.2809,39.5562 24.4475,39.2229 21.5,39.5C 18.4781,39.196 15.4781,38.696 12.5,38C 16.1516,37.5014 19.8183,37.3347 23.5,37.5 Z"/></g>
<g><path style="opacity:1" fill="#cd49a1" d="M 37.5,32.5 C 41.8875,35.1043 42.5542,38.4376 39.5,42.5C 36.8373,44.0572 34.8373,43.3905 33.5,40.5C 35.1132,40.9679 36.6132,40.3013 38,38.5C 37.9449,36.8917 37.1116,35.5584 35.5,34.5C 34.6043,35.5063 33.9377,35.5063 33.5,34.5C 34.5769,33.2949 35.9102,32.6282 37.5,32.5 Z"/></g>
<g><path style="opacity:1" fill="#56d4da" d="M 129.5,37.5 C 131.5,37.5 133.5,37.5 135.5,37.5C 136.69,42.5713 138.19,47.5713 140,52.5C 141.333,47.8333 142.667,43.1667 144,38.5C 145.814,37.2404 147.647,37.2404 149.5,38.5C 146.765,46.5378 143.932,54.5378 141,62.5C 138.348,66.3813 134.848,67.3813 130.5,65.5C 131.676,63.3227 133.51,61.9893 136,61.5C 136.638,60.3914 137.138,59.2247 137.5,58C 134.729,51.1823 132.062,44.349 129.5,37.5 Z"/></g>
<g><path style="opacity:1" fill="#57d7dc" d="M 177.5,37.5 C 179.167,37.5 180.833,37.5 182.5,37.5C 182.334,42.5111 182.501,47.5111 183,52.5C 185,55.1667 187,55.1667 189,52.5C 189.499,47.5111 189.666,42.5111 189.5,37.5C 191.5,37.5 193.5,37.5 195.5,37.5C 195.5,44.5 195.5,51.5 195.5,58.5C 193.833,58.5 192.167,58.5 190.5,58.5C 190.557,54.8669 189.557,54.7002 187.5,58C 184.571,58.7772 181.737,58.6105 179,57.5C 177.58,50.9504 177.08,44.2837 177.5,37.5 Z"/></g>
<g><path style="opacity:1" fill="#4846ab" d="M 15.5,41.5 C 15.5,41.8333 15.5,42.1667 15.5,42.5C 13.712,42.7852 12.0453,42.4519 10.5,41.5C 12.2985,40.2121 13.9652,40.2121 15.5,41.5 Z"/></g>
<g><path style="opacity:1" fill="#228ad7" d="M 15.5,42.5 C 15.5,42.1667 15.5,41.8333 15.5,41.5C 18.5,41.5 21.5,41.5 24.5,41.5C 24.6309,42.3764 24.2975,43.0431 23.5,43.5C 20.9159,42.6072 18.2492,42.2739 15.5,42.5 Z"/></g>
<g><path style="opacity:1" fill="#091219" d="M 160.5,41.5 C 164.949,41.2556 166.615,43.4223 165.5,48C 166.191,53.5481 164.024,55.3815 159,53.5C 156.66,49.0521 157.16,45.0521 160.5,41.5 Z"/></g>
<g><path style="opacity:1" fill="#b74297" d="M 15.5,45.5 C 18.2469,45.1866 20.9135,45.52 23.5,46.5C 23.3764,47.1067 23.0431,47.44 22.5,47.5C 19.8478,47.5905 17.5145,46.9238 15.5,45.5 Z"/></g>
<g><path style="opacity:1" fill="#47d8bf" d="M 37.5,47.5 C 40.7559,50.7903 44.7559,52.457 49.5,52.5C 49.0191,58.6247 45.6858,60.958 39.5,59.5C 37.0882,59.3059 36.0882,57.9726 36.5,55.5C 31.3562,55.6035 30.6896,54.4368 34.5,52C 30.7009,50.4471 30.7009,49.1138 34.5,48C 32.7397,47.0347 32.4063,45.868 33.5,44.5C 34.8518,45.5244 36.1851,46.5244 37.5,47.5 Z"/></g>
<g><path style="opacity:1" fill="#674acb" d="M 19.5,50.5 C 18.1667,50.5 16.8333,50.5 15.5,50.5C 14.2825,49.8386 12.9492,49.1719 11.5,48.5C 12,48.1667 12.5,47.8333 13,47.5C 15.7304,47.7056 17.8971,48.7056 19.5,50.5 Z"/></g>
<g><path style="opacity:1" fill="#1588cd" d="M 15.5,50.5 C 17.9596,51.8908 20.6262,53.0575 23.5,54C 21.8659,54.4935 20.1992,54.6602 18.5,54.5C 16.073,53.0806 13.4064,52.0806 10.5,51.5C 12.0453,50.5481 13.712,50.2148 15.5,50.5 Z"/></g>
<g><path style="opacity:1" fill="#13122d" d="M 57.5,19.5 C 66.7936,24.7952 71.4603,32.7952 71.5,43.5C 67.4384,43.7241 64.605,45.7241 63,49.5C 61.2553,55.1269 59.422,60.6269 57.5,66C 54.0712,67.753 50.5712,67.9197 47,66.5C 45.5657,66.8618 44.3991,67.5285 43.5,68.5C 42.4324,67.5655 41.099,67.2322 39.5,67.5C 40.3984,66.8423 41.3984,66.1757 42.5,65.5C 39.6601,64.8944 37.3268,63.5611 35.5,61.5C 37.7849,62.5463 40.1183,62.5463 42.5,61.5C 43.2495,63.2462 44.5828,64.2462 46.5,64.5C 49.7407,64.1001 52.4074,62.7668 54.5,60.5C 56.5869,59.4154 57.9202,57.7488 58.5,55.5C 59.4345,54.4324 59.7678,53.099 59.5,51.5C 56.8728,52.0916 54.2062,52.4249 51.5,52.5C 51.5,53.8333 51.5,55.1667 51.5,56.5C 51.0679,57.7095 50.4013,58.7095 49.5,59.5C 47.9505,60.4408 46.2838,61.1075 44.5,61.5C 42.8333,60.8333 41.1667,60.1667 39.5,59.5C 45.6858,60.958 49.0191,58.6247 49.5,52.5C 44.7559,52.457 40.7559,50.7903 37.5,47.5C 38.4408,45.9505 39.1075,44.2838 39.5,42.5C 42.5542,38.4376 41.8875,35.1043 37.5,32.5C 39.0746,30.8863 39.7413,28.8863 39.5,26.5C 40.1667,23.8333 41.8333,22.1667 44.5,21.5C 47.969,20.3 51.3023,20.3 54.5,21.5C 53.5,21.5 52.5,21.5 51.5,21.5C 47.8177,21.5907 44.651,22.924 42,25.5C 39.6538,28.7718 40.1538,31.4384 43.5,33.5C 45.1311,31.7026 47.1311,30.5359 49.5,30C 54.2302,29.4911 58.8969,28.6578 63.5,27.5C 63.1445,26.4777 62.4778,25.811 61.5,25.5C 61.0269,24.0937 60.0269,23.427 58.5,23.5C 57.8333,22.8333 57.1667,22.1667 56.5,21.5C 57.3382,21.1583 57.6716,20.4916 57.5,19.5 Z"/></g>
<g><path style="opacity:1" fill="#c77d34" d="M 42.5,43.5 C 43.6546,45.8251 45.6546,46.9918 48.5,47C 51.6965,47.8045 54.6965,47.6378 57.5,46.5C 61.2896,46.0077 61.9563,46.841 59.5,49C 52.152,51.8034 45.4853,50.8034 39.5,46C 40.3734,44.955 41.3734,44.1217 42.5,43.5 Z"/></g>
<g><path style="opacity:1" fill="#c37841" d="M 59.5,38.5 C 62.8067,39.0508 66.1401,39.3841 69.5,39.5C 69.5,40.5 69.5,41.5 69.5,42.5C 65.1059,42.8687 60.7726,43.5354 56.5,44.5C 56.615,42.0532 57.615,40.0532 59.5,38.5 Z"/></g>
<g><path style="opacity:1" fill="#eabe41" d="M 57.5,46.5 C 54.6965,47.6378 51.6965,47.8045 48.5,47C 45.6546,46.9918 43.6546,45.8251 42.5,43.5C 42.963,40.4312 44.2963,39.9312 46.5,42C 49.146,42.4974 51.8127,42.6641 54.5,42.5C 54.0882,44.9726 55.0882,46.3059 57.5,46.5 Z"/></g>
<g><path style="opacity:1" fill="#dab2cf" d="M 58.5,31.5 C 57.2073,33.2959 55.7073,34.9625 54,36.5C 53.7003,34.9343 54.2003,33.601 55.5,32.5C 56.391,31.8902 57.391,31.5569 58.5,31.5 Z"/></g>
<g><path style="opacity:1" fill="#120a31" d="M 48.5,33.5 C 48.8333,33.5 49.1667,33.5 49.5,33.5C 50.032,36.4596 50.6987,36.7929 51.5,34.5C 52.6857,35.7054 52.6857,37.0387 51.5,38.5C 50.1667,38.5 48.8333,38.5 47.5,38.5C 47.366,36.7085 47.6993,35.0418 48.5,33.5 Z"/></g>
<g><path style="opacity:1" fill="#7f2b6e" d="M 47.5,33.5 C 47.8333,33.5 48.1667,33.5 48.5,33.5C 47.6993,35.0418 47.366,36.7085 47.5,38.5C 48.8333,38.5 50.1667,38.5 51.5,38.5C 51.8417,39.3382 52.5084,39.6716 53.5,39.5C 49.4899,41.5458 46.8232,40.3791 45.5,36C 45.6387,34.699 46.3054,33.8656 47.5,33.5 Z"/></g>
<g><path style="opacity:1" fill="#8f859a" d="M 49.5,33.5 C 50.4916,33.3284 51.1583,33.6618 51.5,34.5C 50.6987,36.7929 50.032,36.4596 49.5,33.5 Z"/></g>
<g><path style="opacity:1" fill="#955188" d="M 58.5,31.5 C 61.7936,29.903 64.7936,30.403 67.5,33C 66.2575,33.3114 65.2575,32.8114 64.5,31.5C 63.8165,31.8627 63.1499,32.1961 62.5,32.5C 61.4324,31.5655 60.099,31.2322 58.5,31.5 Z"/></g>
<g><path style="opacity:1" fill="#ed4bb3" d="M 58.5,31.5 C 60.099,31.2322 61.4324,31.5655 62.5,32.5C 62.5,33.5 62.5,34.5 62.5,35.5C 59.0414,36.0677 56.0414,37.401 53.5,39.5C 52.5084,39.6716 51.8417,39.3382 51.5,38.5C 52.6857,37.0387 52.6857,35.7054 51.5,34.5C 51.1583,33.6618 50.4916,33.3284 49.5,33.5C 49.1667,33.5 48.8333,33.5 48.5,33.5C 48.1667,33.5 47.8333,33.5 47.5,33.5C 49.9479,32.5269 52.6146,32.1936 55.5,32.5C 54.2003,33.601 53.7003,34.9343 54,36.5C 55.7073,34.9625 57.2073,33.2959 58.5,31.5 Z"/></g>
<g><path style="opacity:1" fill="#b4b1a0" d="M 58.5,23.5 C 60.0269,23.427 61.0269,24.0937 61.5,25.5C 59.9731,25.573 58.9731,24.9063 58.5,23.5 Z"/></g>
<g><path style="opacity:1" fill="#eec447" d="M 51.5,21.5 C 53.5994,22.6118 55.9327,23.2785 58.5,23.5C 58.9731,24.9063 59.9731,25.573 61.5,25.5C 62.4778,25.811 63.1445,26.4777 63.5,27.5C 58.8969,28.6578 54.2302,29.4911 49.5,30C 47.1311,30.5359 45.1311,31.7026 43.5,33.5C 40.1538,31.4384 39.6538,28.7718 42,25.5C 44.651,22.924 47.8177,21.5907 51.5,21.5 Z"/></g>
<g><path style="opacity:1" fill="#c5c2b1" d="M 51.5,21.5 C 52.5,21.5 53.5,21.5 54.5,21.5C 55.1667,21.5 55.8333,21.5 56.5,21.5C 57.1667,22.1667 57.8333,22.8333 58.5,23.5C 55.9327,23.2785 53.5994,22.6118 51.5,21.5 Z"/></g>
<g><path style="opacity:1" fill="#27978f" d="M 58.5,55.5 C 57.0821,53.6921 55.0821,53.0254 52.5,53.5C 52.7373,54.791 52.404,55.791 51.5,56.5C 51.5,55.1667 51.5,53.8333 51.5,52.5C 54.2062,52.4249 56.8728,52.0916 59.5,51.5C 59.7678,53.099 59.4345,54.4324 58.5,55.5 Z"/></g>
<g><path style="opacity:1" fill="#34e5c3" d="M 58.5,55.5 C 57.9202,57.7488 56.5869,59.4154 54.5,60.5C 52.5853,60.7845 50.9187,60.4511 49.5,59.5C 50.4013,58.7095 51.0679,57.7095 51.5,56.5C 52.404,55.791 52.7373,54.791 52.5,53.5C 55.0821,53.0254 57.0821,53.6921 58.5,55.5 Z"/></g>
<g><path style="opacity:1" fill="#c04098" d="M 18.5,55.5 C 21.2061,55.8872 23.5395,56.8872 25.5,58.5C 20.821,58.0134 16.1544,57.3467 11.5,56.5C 13.7427,55.5258 16.076,55.1924 18.5,55.5 Z"/></g>
<g><path style="opacity:1" fill="#0f1435" d="M 57.5,19.5 C 57.6716,20.4916 57.3382,21.1583 56.5,21.5C 55.8333,21.5 55.1667,21.5 54.5,21.5C 51.3023,20.3 47.969,20.3 44.5,21.5C 45.347,20.0337 46.6803,19.2004 48.5,19C 41.6306,18.8534 37.2973,22.1868 35.5,29C 35.8499,30.2575 36.5165,30.5908 37.5,30C 38.0848,28.6976 38.7515,27.531 39.5,26.5C 39.7413,28.8863 39.0746,30.8863 37.5,32.5C 35.9102,32.6282 34.5769,33.2949 33.5,34.5C 33.9377,35.5063 34.6043,35.5063 35.5,34.5C 37.1116,35.5584 37.9449,36.8917 38,38.5C 36.6132,40.3013 35.1132,40.9679 33.5,40.5C 34.8373,43.3905 36.8373,44.0572 39.5,42.5C 39.1075,44.2838 38.4408,45.9505 37.5,47.5C 36.1851,46.5244 34.8518,45.5244 33.5,44.5C 32.4063,45.868 32.7397,47.0347 34.5,48C 30.7009,49.1138 30.7009,50.4471 34.5,52C 30.6896,54.4368 31.3562,55.6035 36.5,55.5C 36.0882,57.9726 37.0882,59.3059 39.5,59.5C 41.1667,60.1667 42.8333,60.8333 44.5,61.5C 43.8333,61.5 43.1667,61.5 42.5,61.5C 40.1183,62.5463 37.7849,62.5463 35.5,61.5C 33.7748,61.8425 33.2748,62.8425 34,64.5C 34.956,65.5786 35.7894,66.7453 36.5,68C 37.7494,68.7401 38.7494,68.5735 39.5,67.5C 41.099,67.2322 42.4324,67.5655 43.5,68.5C 41.3916,69.7753 39.0583,70.2753 36.5,70C 33.6306,66.9621 30.6306,64.1288 27.5,61.5C 26.5,60.8333 25.5,60.1667 24.5,59.5C 26.2239,59.5393 26.5573,59.206 25.5,58.5C 23.5395,56.8872 21.2061,55.8872 18.5,55.5C 18.5,55.1667 18.5,54.8333 18.5,54.5C 20.1992,54.6602 21.8659,54.4935 23.5,54C 20.6262,53.0575 17.9596,51.8908 15.5,50.5C 16.8333,50.5 18.1667,50.5 19.5,50.5C 20.5,49.5 21.5,48.5 22.5,47.5C 23.0431,47.44 23.3764,47.1067 23.5,46.5C 20.9135,45.52 18.2469,45.1866 15.5,45.5C 16.2625,44.7321 17.2625,44.2321 18.5,44C 17.2625,43.7679 16.2625,43.2679 15.5,42.5C 18.2492,42.2739 20.9159,42.6072 23.5,43.5C 24.2975,43.0431 24.6309,42.3764 24.5,41.5C 23.5,40.8333 22.5,40.1667 21.5,39.5C 24.4475,39.2229 27.2809,39.5562 30,40.5C 30.1667,40.1667 30.3333,39.8333 30.5,39.5C 28.0312,38.8319 25.6979,38.1653 23.5,37.5C 24.1667,37.5 24.5,37.1667 24.5,36.5C 26.604,36.7989 28.604,36.4656 30.5,35.5C 30.3764,34.8933 30.0431,34.56 29.5,34.5C 29.1667,33.8333 28.8333,33.1667 28.5,32.5C 30.099,32.7678 31.4324,32.4345 32.5,31.5C 33.3382,31.1583 33.6716,30.4916 33.5,29.5C 35.8136,19.3374 42.1469,15.1708 52.5,17C 54.4517,17.3661 56.1184,18.1995 57.5,19.5 Z"/></g>
<g><path style="opacity:1" fill="#23a49e" d="M 26.5,41.5 C 28.595,41.7598 29.9283,42.9264 30.5,45C 29.4496,48.4551 29.2829,51.9551 30,55.5C 30.9025,56.7014 32.0692,57.5348 33.5,58C 32.8921,58.8699 32.0588,59.3699 31,59.5C 25.3848,56.3556 24.2181,52.0223 27.5,46.5C 26.6906,44.9291 26.3573,43.2624 26.5,41.5 Z"/></g>
<g><path style="opacity:1" fill="#6675bb" d="M 24.5,59.5 C 25.5,60.1667 26.5,60.8333 27.5,61.5C 24.3264,62.9596 21.3264,62.6263 18.5,60.5C 20.396,59.5344 22.396,59.2011 24.5,59.5 Z"/></g>
<g><path style="opacity:1" fill="#188a8f" d="M 49.5,59.5 C 50.9187,60.4511 52.5853,60.7845 54.5,60.5C 52.4074,62.7668 49.7407,64.1001 46.5,64.5C 44.5828,64.2462 43.2495,63.2462 42.5,61.5C 43.1667,61.5 43.8333,61.5 44.5,61.5C 46.2838,61.1075 47.9505,60.4408 49.5,59.5 Z"/></g>
<g><path style="opacity:1" fill="#e18d40" d="M 35.5,61.5 C 37.3268,63.5611 39.6601,64.8944 42.5,65.5C 41.3984,66.1757 40.3984,66.8423 39.5,67.5C 38.7494,68.5735 37.7494,68.7401 36.5,68C 35.7894,66.7453 34.956,65.5786 34,64.5C 33.2748,62.8425 33.7748,61.8425 35.5,61.5 Z"/></g>
</svg>
